<?xml version="1.0" encoding="UTF-8"?>
<svg width="38px" height="38px" viewBox="0 0 38 38" version="1.1" xmlns="http://www.w3.org/2000/svg" xmlns:xlink="http://www.w3.org/1999/xlink">
    <title>Combined Shape Copy 10black</title>
    <g id="Page-1" stroke="none" stroke-width="1" fill="none" fill-rule="evenodd">
        <path d="M21.267767,0.554563517 L24.8021032,4.09009742 L26.2175144,2.67588386 L27.631728,4.09009742 L24.8033009,6.91852455 L21.2665693,3.38299064 L13.4883947,11.1611652 L15.6097151,13.2824856 L20.6591531,8.23424515 L22.0733667,9.64845871 L19.8526703,11.8685635 L29.0456703,21.0615635 L36.1170094,13.99079 L37.5312229,15.4050035 L30.4596703,22.4755635 L33.2883003,25.3042166 L29.7506703,28.8405635 L31.1676751,30.2575991 L26.2172339,35.2080403 L24.8011795,33.7907036 L21.2680838,37.324433 L17.0246703,33.0805635 L14.1963997,35.9090044 L10.6606703,32.3735635 L9.95405845,33.0814755 L9.9516703,33.0785635 L9.24488293,33.7865135 L4.29444168,28.8360722 L5.71171717,27.4243218 L2.17618327,23.8887879 L5.0036703,21.0605635 L0.761670299,16.8180195 L2.17588386,15.4038059 L6.4186703,19.6465635 L8.53984489,17.5251263 L9.95405845,16.1109127 L14.9038059,21.0606602 L13.4896703,22.4745635 L17.0251263,26.0104076 L16.3176703,26.7165635 L19.8529546,30.2524495 L18.4386703,31.6655635 L21.2684741,34.4949819 L23.3886703,32.3745635 L18.4393398,27.4246212 L19.8535534,26.0104076 L26.2175144,32.3743687 L26.2146703,32.3765635 L26.2175144,32.3786113 L28.3395419,30.2565839 L26.9228694,28.8412204 L26.9246703,28.8385635 L21.9748737,23.8890873 L23.3890873,22.4748737 L28.3386703,27.4245635 L30.4601551,25.3033009 L18.4386703,13.2825635 L15.6109127,16.1109127 L10.6611652,11.1611652 L13.4886703,8.33256352 L11.3676732,6.21201658 L12.7818868,4.79780302 L14.9026703,6.91856352 L21.267767,0.554563517 Z M14.9036703,28.1315635 L12.0746703,30.9595635 L14.1962914,33.0810678 L17.0247186,30.2526406 L14.9036703,28.1315635 Z M7.83273811,28.131728 L7.8306703,28.1295635 L7.12340171,28.8360063 L9.24542916,30.9580338 L10.6593433,29.5441196 L10.6606703,29.5455635 L14.1978968,26.0104076 L12.0765764,23.8890873 L7.83273811,28.131728 Z M12.0765764,21.0606602 L9.95525608,18.9393398 L9.14845871,19.7449396 L5.00431099,23.8890873 L7.1246703,26.0095635 L9.8556703,23.2805635 L9.85556549,23.2804735 L12.0753788,21.0606602 L12.0765764,21.0606602 Z" id="Combined-Shape-Copy-10" fill="#000000" fill-rule="nonzero"></path>
    </g>
</svg>