<?xml version="1.0" encoding="UTF-8" standalone="no"?>
<svg width="49px" height="47px" viewBox="0 0 49 47" version="1.1" xmlns="http://www.w3.org/2000/svg" xmlns:xlink="http://www.w3.org/1999/xlink" xmlns:sketch="http://www.bohemiancoding.com/sketch/ns">
    <!-- Generator: Sketch 3.3.3 (12081) - http://www.bohemiancoding.com/sketch -->
    <title>Fill 1 + Fill 2</title>
    <desc>Created with Sketch.</desc>
    <defs></defs>
    <g id="4---Details" stroke="none" stroke-width="1" fill="none" fill-rule="evenodd" sketch:type="MSPage">
        <g id="Details-4_1" sketch:type="MSArtboardGroup" transform="translate(-617.000000, -15.000000)" fill="#FFFFFF">
            <g id="Fill-1-+-Fill-2" sketch:type="MSLayerGroup" transform="translate(617.000000, 15.000000)">
                <path d="M19.6010638,0 L5.63085106,0 C2.56489362,0 0,2.62452273 0,5.82906818 L0,41.2435682 C0,44.3754773 2.56489362,47 5.63085106,47 L19.6010638,47 C22.7382979,47 25.3031915,44.3754773 25.3031915,41.2435682 L25.3031915,31.772 L16.3946809,31.772 L16.3946809,37.9631818 L8.83829787,37.9631818 L8.83829787,9.03681818 L16.3946809,9.03681818 L16.3946809,15.228 L25.3031915,15.228 L25.3031915,5.82906818 C25.3031915,2.62452273 22.7382979,0 19.6010638,0" id="Fill-1" sketch:type="MSShapeGroup"></path>
                <path d="M47.2606383,17.9475909 C45.7340426,18.4517727 43.6148936,19.1578409 41.8414894,19.7613636 L41.8414894,13.8660682 L36.4212766,13.8660682 L36.4212766,19.7613636 L31.0021277,17.9475909 L29.3244681,23.1870227 C30.8542553,23.6912045 33.0712766,24.393 34.8446809,24.9997273 L31.443617,29.7339091 L35.7319149,33.0078864 C36.6670213,31.6459545 37.9968085,29.7339091 39.1308511,28.1711591 L42.5308511,33.0078864 L46.8159574,29.7339091 C45.9308511,28.4745227 44.5021277,26.5101364 43.4170213,24.9997273 L48.9361702,23.1870227 L47.2606383,17.9475909" id="Fill-2" sketch:type="MSShapeGroup"></path>
            </g>
        </g>
    </g>
</svg>