<?xml version="1.0" encoding="utf-8"?>
<!-- Generator: Adobe Illustrator 19.0.1, SVG Export Plug-In . SVG Version: 6.00 Build 0)  -->
<svg version="1.1" id="Ebene_1" xmlns="http://www.w3.org/2000/svg" xmlns:xlink="http://www.w3.org/1999/xlink" x="0px" y="0px"
	 width="25px" height="24px" viewBox="0 0 25 24" enable-background="new 0 0 25 24" xml:space="preserve">
<path d="M20.4,2H4.1C2.5,2,1.8,2.8,1.8,4.3v15.3c0,1.6,0.8,2.3,2.4,2.3h16.2c1.6,0,2.4-0.8,2.4-2.3V4.3C22.8,2.8,22,2,20.4,2z
	 M19.3,12.5h-1.9v7.8h-3.2v-7.8h-1.4v-2.5h1.4c0.1-1.8,0.1-3.6,0.9-4.5c1-1,1.9-0.9,4.6-0.9v2.5c0,0-1.8-0.2-2.2,0.5
	c-0.2,0.4-0.1,1.5-0.1,2.3h2.3C19.6,11,19.4,11.7,19.3,12.5z"/>
</svg>
