<?xml version="1.0" encoding="utf-8"?>
<!-- Generator: Adobe Illustrator 19.0.1, SVG Export Plug-In . SVG Version: 6.00 Build 0)  -->
<svg version="1.1" id="Ebene_1" xmlns="http://www.w3.org/2000/svg" xmlns:xlink="http://www.w3.org/1999/xlink" x="0px" y="0px"
	 width="62px" height="62px" viewBox="0 0 62 62" enable-background="new 0 0 62 62" xml:space="preserve">
<path d="M51.5,10.5L31,2l-20.5,8.5L2,31l8.5,20.5L31,60l20.5-8.5L60,31L51.5,10.5z M49.3,49.3L31,56.8l-18.3-7.6L5.2,31l7.6-18.3
	L31,5.2l18.3,7.6L56.8,31L49.3,49.3z M39.3,34.2c-0.1-0.1-0.2-0.1-0.3,0L33.4,40V18.7c0-0.1-0.1-0.2-0.2-0.2h-2.4
	c-0.1,0-0.2,0.1-0.2,0.2V40L25,34.2c-0.1-0.1-0.2-0.1-0.3,0l-1.6,1.7c0,0-0.1,0.1-0.1,0.2c0,0.1,0,0.1,0.1,0.2l8.9,9.2
	c0,0,0.1,0.1,0.2,0.1c0.1,0,0.1,0,0.2-0.1l8.6-9.2c0.1-0.1,0.1-0.2,0-0.3L39.3,34.2z"/>
</svg>
