<?xml version="1.0" encoding="utf-8"?>
<!-- Generator: Adobe Illustrator 19.2.1, SVG Export Plug-In . SVG Version: 6.00 Build 0)  -->
<svg version="1.1" id="Ebene_1" xmlns="http://www.w3.org/2000/svg" xmlns:xlink="http://www.w3.org/1999/xlink" x="0px" y="0px"
	 width="24px" height="23px" viewBox="0 0 24 23" enable-background="new 0 0 24 23" xml:space="preserve">
<path d="M19.6,5.7L19.6,5.7c0.2-0.1,0.3-0.2,0.5-0.3c0.7-0.5,1.1-1.2,1.4-2l-0.5,0.3c-0.6,0.3-1.5,0.7-2.2,0.7
	C17.8,3.6,16.9,3,15.3,3l-0.5,0.1c-0.3,0.1-0.7,0.2-0.9,0.3c-1.2,0.5-2.1,1.5-2.4,2.9c-0.2,0.5-0.2,1.5,0,2C10.7,8.3,10,8.1,9.4,8
	C7.1,7.4,5.7,6.7,4.1,5.5C3.7,5.1,3.2,4.7,2.9,4.2C2.7,4.1,2.6,4,2.5,3.8l0,0C2.3,4.1,2.1,4.5,2,4.9c-0.4,1.6,0.3,3,1,3.9
	c0.2,0.3,0.6,0.4,0.8,0.7h0c-0.2,0.1-0.4,0-0.6-0.1C2.8,9.4,2.5,9.3,2.3,9.2L1.8,9c0,1.8,0.9,3,2,3.7c0.4,0.2,0.9,0.5,1.4,0.6
	c-0.3,0.2-1.5,0.1-1.9,0.1c0.5,1.4,1.3,2.3,2.7,2.7c0.4,0.1,0.8,0.2,1.3,0.2c-0.3,0.3-0.8,0.6-1.2,0.8c-0.7,0.4-1.6,0.7-2.6,0.9
	c-0.4,0.1-0.8,0.1-1.2,0.1c-0.5,0.1-1,0-1.4-0.1l0.4,0.2c0.4,0.2,0.8,0.4,1.2,0.6c0.8,0.3,1.6,0.6,2.5,0.8c1.9,0.5,4.5,0.3,6.1-0.3
	c4.5-1.4,7.4-4.7,8.4-9.5c0.2-0.8,0.2-1.8,0.2-2.8l0.7-0.5C21.1,6.3,21.6,5.6,22,5v0C21.3,5.2,20.5,5.7,19.6,5.7z"/>
</svg>
