<?xml version="1.0" encoding="utf-8"?>
<!-- Generator: Adobe Illustrator 19.0.1, SVG Export Plug-In . SVG Version: 6.00 Build 0)  -->
<svg version="1.1" id="Ebene_1" xmlns="http://www.w3.org/2000/svg" xmlns:xlink="http://www.w3.org/1999/xlink" x="0px" y="0px"
	 width="20px" height="24px" viewBox="0 0 20 24" enable-background="new 0 0 20 24" xml:space="preserve">
<path d="M6.8,6.1C6.7,5.8,6.4,5.6,5.9,5.6H2.7c-0.2,0-0.4,0.1-0.4,0.2C2.2,5.9,2.2,6,2.3,6.2l2.2,3.4c0,0,0,0,0,0L1.1,15
	c-0.1,0.2-0.1,0.3,0,0.4c0.1,0.1,0.2,0.2,0.4,0.2h3.2c0.5,0,0.7-0.3,0.9-0.6c0,0,3.3-5.3,3.5-5.5C9,9.5,6.8,6.1,6.8,6.1z M17.9,2.5
	C18,2.4,18,2.2,18,2.1c-0.1-0.1-0.2-0.2-0.4-0.2h-2.7c-0.4,0-0.6,0.3-0.7,0.6c0,0-5.8,11.1-6,11.4c0,0,3.8,7.6,3.8,7.6
	c0.1,0.3,0.3,0.6,0.8,0.6h2.7c0.2,0,0.3-0.1,0.4-0.2c0.1-0.1,0.1-0.3,0-0.4L12,13.9c0,0,0,0,0,0L17.9,2.5z"/>
</svg>
