<?xml version="1.0" encoding="UTF-8" standalone="no"?>
<svg width="500px" height="102px" viewBox="0 0 500 102" version="1.1" xmlns="http://www.w3.org/2000/svg" xmlns:xlink="http://www.w3.org/1999/xlink" xmlns:sketch="http://www.bohemiancoding.com/sketch/ns">
    <!-- Generator: Sketch 3.3.3 (12081) - http://www.bohemiancoding.com/sketch -->
    <title>Group</title>
    <desc>Created with Sketch.</desc>
    <defs></defs>
    <g id="2---Home" stroke="none" stroke-width="1" fill="none" fill-rule="evenodd" sketch:type="MSPage">
        <g id="Home-1" sketch:type="MSArtboardGroup" transform="translate(-385.000000, -305.000000)" fill="#FFFFFF">
            <g id="Group" sketch:type="MSLayerGroup" transform="translate(385.000000, 304.900000)">
                <path d="M43.6840803,0.271726769 L12.7400749,0.271726769 C5.95301813,0.271726769 0.270320852,5.93431604 0.270320852,12.8540439 L0.270320852,89.302643 C0.270320852,96.065684 5.95301813,101.728273 12.7400749,101.728273 L43.6840803,101.728273 C50.6283802,101.728273 56.3110775,96.065684 56.3110775,89.302643 L56.3110775,68.8568332 L36.5788803,68.8568332 L36.5788803,82.2225844 L19.8452749,82.2225844 L19.8452749,19.7774156 L36.5788803,19.7774156 L36.5788803,33.1431668 L56.3110775,33.1431668 L56.3110775,12.8540439 C56.3110775,5.93431604 50.6283802,0.271726769 43.6840803,0.271726769" id="Fill-1-Copy" sketch:type="MSShapeGroup"></path>
                <path d="M116.575461,101.728273 L136.146758,101.728273 L136.146758,60.8293659 L162.826912,60.8293659 L162.826912,41.327321 L136.146758,41.327321 L136.146758,19.7774156 L172.61256,19.7774156 L172.61256,0.271726769 L116.575461,0.271726769 L116.575461,101.728273" id="Fill-2-Copy" sketch:type="MSShapeGroup"></path>
                <path d="M224.060352,0.271726769 L193.120003,0.271726769 C186.332947,0.271726769 180.650249,5.93431604 180.650249,12.8540439 L180.650249,101.728273 L200.225203,101.728273 L200.225203,74.3590917 L216.955152,74.3590917 L216.955152,101.728273 L236.687349,101.728273 L236.687349,12.8540439 C236.687349,5.93431604 231.008309,0.271726769 224.060352,0.271726769 L224.060352,0.271726769 Z M200.225203,19.7774156 L216.955152,19.7774156 L216.955152,55.1704205 L200.225203,55.1704205 L200.225203,19.7774156 Z" id="Fill-3-Copy" sketch:type="MSShapeGroup"></path>
                <path d="M291.294633,0.271726769 L260.354284,0.271726769 C253.567227,0.271726769 247.88453,5.93431604 247.88453,12.8540439 L247.88453,89.302643 C247.88453,96.065684 253.567227,101.728273 260.354284,101.728273 L291.294633,101.728273 C298.242589,101.728273 303.92163,96.065684 303.92163,89.302643 L303.92163,68.8568332 L284.196746,68.8568332 L284.196746,82.2225844 L267.459484,82.2225844 L267.459484,19.7774156 L284.196746,19.7774156 L284.196746,33.1431668 L303.92163,33.1431668 L303.92163,12.8540439 C303.92163,5.93431604 298.242589,0.271726769 291.294633,0.271726769" id="Fill-4-Copy" sketch:type="MSShapeGroup"></path>
                <path d="M311.432737,19.7774156 L329.581531,19.7774156 L329.581531,101.728273 L349.156485,101.728273 L349.156485,19.7774156 L367.469837,19.7774156 L367.469837,0.271726769 L311.432737,0.271726769 L311.432737,19.7774156" id="Fill-5-Copy" sketch:type="MSShapeGroup"></path>
                <path d="M414.814677,0.271726769 L392.244788,0.271726769 C382.930869,0.271726769 375.511182,7.8218458 375.511182,16.9461209 L375.511182,85.0538791 C375.511182,94.334841 382.930869,101.728273 392.244788,101.728273 L414.814677,101.728273 C423.971353,101.728273 431.548282,94.334841 431.548282,85.0538791 L431.548282,16.9461209 C431.548282,7.8218458 423.971353,0.271726769 414.814677,0.271726769 L414.814677,0.271726769 Z M395.08248,19.7774156 L411.816085,19.7774156 L411.816085,82.2225844 L395.08248,82.2225844 L395.08248,19.7774156 Z" id="Fill-6-Copy" sketch:type="MSShapeGroup"></path>
                <path d="M488.367941,65.617424 C494.357812,63.2634776 498.778906,57.2838708 498.778906,50.2038123 L498.778906,16.9461209 C498.778906,7.8218458 491.201976,0.271726769 482.052614,0.271726769 L442.741806,0.271726769 L442.741806,101.728273 L462.31676,101.728273 L462.31676,66.8782064 L467.681314,66.8782064 L478.574979,101.728273 L499.729679,101.728273 L488.367941,65.617424 L488.367941,65.617424 Z M462.31676,19.7774156 L479.050366,19.7774156 L479.050366,47.3688737 L462.31676,47.3688737 L462.31676,19.7774156 Z" id="Fill-7-Copy" sketch:type="MSShapeGroup"></path>
                <path d="M101.439885,38.7656734 C98.0609841,39.8551935 93.3656281,41.3783353 89.4382041,42.6792004 L89.4382041,29.954772 L77.4365229,29.954772 L77.4365229,42.6792004 L65.4348418,38.7656734 L61.7195133,50.0762765 C65.1057281,51.1621527 70.0168365,52.6780067 73.9442604,53.9898034 L66.4112126,64.2072425 L75.9079724,71.2763694 C77.9777322,68.3357584 80.9251286,64.2072425 83.4373635,60.8366536 L90.9667546,71.2763694 L100.456201,64.2072425 C98.4961456,61.4889081 95.3329969,57.247432 92.9268097,53.9898034 L105.151557,50.0762765 L101.439885,38.7656734" id="Fill-8-Copy" sketch:type="MSShapeGroup"></path>
            </g>
        </g>
    </g>
</svg>