<?xml version="1.0" encoding="utf-8"?>
<!-- Generator: Adobe Illustrator 19.1.0, SVG Export Plug-In . SVG Version: 6.00 Build 0)  -->
<svg version="1.1" id="Ebene_1" xmlns="http://www.w3.org/2000/svg" xmlns:xlink="http://www.w3.org/1999/xlink" x="0px" y="0px"
	 width="28px" height="39px" viewBox="0 0 28 39" enable-background="new 0 0 28 39" xml:space="preserve">
<path fill="#FFFFFF" d="M23.8,29.8c0-0.1,0-0.3-0.1-0.4c-0.2-1.2-5.2-4.2-5.6-4.3c-0.1,0-0.2-0.1-0.4-0.1c-0.8,0-1.8,0.4-3.9,1.5
	c-1.7-1.4-3.7-4.5-4.6-6.2c-0.9-1.9-1.9-4.9-2-6.9c2.4-1.2,3.4-1.7,3.7-2.5c0.1-0.4,0.7-6.2-0.1-7.1c-0.1-0.1-0.2-0.2-0.2-0.3
	C10.2,2.9,9.4,2.1,8.3,2C8,2,7.7,2,7.5,2.1c-0.8,0.3-2.9,1-4.1,2.3c-0.7,0.8-3.3,9.6,1.3,18.9C9.3,32.4,17.3,34.9,18.6,35l0,0l0.1,0
	c1.8-0.1,3.6-1.3,4.3-1.8C24.3,32.2,24,30.6,23.8,29.8z"/>
</svg>
