<?xml version="1.0" encoding="UTF-8" standalone="no"?>
<svg width="52px" height="52px" viewBox="0 0 52 52" version="1.1" xmlns="http://www.w3.org/2000/svg" xmlns:xlink="http://www.w3.org/1999/xlink" xmlns:sketch="http://www.bohemiancoding.com/sketch/ns">
    <!-- Generator: Sketch 3.3.3 (12081) - http://www.bohemiancoding.com/sketch -->
    <g id="4---Details" stroke="none" stroke-width="1" fill="none" fill-rule="evenodd" sketch:type="MSPage">
        <g id="Details-2" sketch:type="MSArtboardGroup" transform="translate(-250.000000, -3865.000000)">
            <g id="Polygon-1-Copy-5-+-Imported-Layers" sketch:type="MSLayerGroup" transform="translate(250.000000, 3866.000000)">
                <polygon id="Polygon-1-Copy-5" stroke="#111111" stroke-width="3" sketch:type="MSShapeGroup" points="25.75 0 43.4276695 7.32233047 50.75 25 43.4276695 42.6776695 25.75 50 8.07233047 42.6776695 0.75 25 8.07233047 7.32233047 "></polygon>
                <path d="M34.75,32.5 L17.25,32.5 C16.55975,32.5 16,33.0595 16,33.75 C16,34.4405 16.55975,35 17.25,35 L34.75,35 C35.44025,35 36,34.4405 36,33.75 C36,33.0595 35.44025,32.5 34.75,32.5 L34.75,32.5 Z M25.11575,29.88325 C25.174,29.9415 25.23825,29.99375 25.307,30.0395 C25.337,30.05975 25.36975,30.0735 25.40075,30.09075 C25.441,30.11275 25.4795,30.13675 25.522,30.15425 C25.563,30.17125 25.60575,30.18125 25.648,30.1935 C25.68375,30.204 25.71825,30.218 25.75525,30.22525 C25.836,30.24125 25.918,30.25 26,30.25 C26.082,30.25 26.164,30.24125 26.24475,30.22525 C26.28175,30.218 26.31625,30.204 26.352,30.1935 C26.39425,30.18125 26.437,30.17125 26.478,30.15425 C26.5205,30.13675 26.559,30.11275 26.599,30.09075 C26.63025,30.0735 26.663,30.05975 26.693,30.0395 C26.76175,29.99375 26.826,29.9415 26.88425,29.88325 L31.134,25.63375 C31.622,25.146 31.622,24.3545 31.134,23.86625 C30.64575,23.378 29.8545,23.378 29.366,23.86625 L27.25,25.9825 L27.25,16.25 C27.25,15.5595 26.69025,15 26,15 C25.30975,15 24.75,15.5595 24.75,16.25 L24.75,25.9825 L22.634,23.86625 C22.14575,23.378 21.35425,23.378 20.866,23.86625 C20.378,24.3545 20.378,25.146 20.866,25.63375 L25.11575,29.88325 L25.11575,29.88325 Z" id="Imported-Layers" fill="#111111" sketch:type="MSShapeGroup"></path>
            </g>
        </g>
    </g>
</svg>
