<!-- Generated by IcoMoon.io -->
<svg version="1.1" xmlns="http://www.w3.org/2000/svg" width="1024" height="1024" viewBox="0 0 1024 1024">
<title></title>
<g id="icomoon-ignore">
</g>
<path d="M872.96 151.040l-360.96-151.040-360.96 151.040-151.040 360.96 151.040 360.96 360.96 151.040 360.96-151.040 151.040-360.96-151.040-360.96zM834.56 834.56l-322.56 133.12-322.56-133.12-133.12-322.56 133.12-322.56 322.56-133.12 322.56 133.12 133.12 322.56-133.12 322.56zM678.4 483.84h-273.92l102.4-102.4c2.56-2.56 2.56-2.56 2.56-5.12s0-5.12-2.56-5.12l-20.48-23.040c-2.56-2.56-10.24-2.56-12.8 0l-151.040 151.040c-2.56 2.56-2.56 7.68 0 12.8l10.24 10.24c0 0 0 0 0 0l143.36 143.36c2.56 2.56 5.12 2.56 5.12 2.56s5.12 0 5.12-2.56l20.48-20.48c2.56-2.56 2.56-2.56 2.56-5.12s0-5.12-2.56-5.12l-102.4-102.4h273.92c5.12 0 7.68-5.12 7.68-7.68v-28.16c0-7.68-2.56-12.8-7.68-12.8z"></path>
</svg>
