<!-- Generated by IcoMoon.io -->
<svg version="1.1" xmlns="http://www.w3.org/2000/svg" width="1024" height="1024" viewBox="0 0 1024 1024">
<title></title>
<g id="icomoon-ignore">
</g>
<path d="M151.040 151.040l360.96-151.040 360.96 151.040 151.040 360.96-151.040 360.96-360.96 151.040-360.96-151.040-151.040-360.96 151.040-360.96zM189.44 834.56l322.56 133.12 322.56-133.12 133.12-322.56-133.12-322.56-322.56-133.12-322.56 133.12-133.12 322.56 133.12 322.56zM345.6 483.84h273.92l-102.4-102.4c-2.56-2.56-2.56-2.56-2.56-5.12s0-5.12 2.56-5.12l20.48-23.040c2.56-2.56 10.24-2.56 12.8 0l151.040 151.040c2.56 2.56 2.56 7.68 0 12.8l-10.24 10.24c0 0 0 0 0 0l-143.36 143.36c-2.56 2.56-5.12 2.56-5.12 2.56s-5.12 0-5.12-2.56l-20.48-20.48c-2.56-2.56-2.56-2.56-2.56-5.12s0-5.12 2.56-5.12l102.4-102.4h-273.92c-5.12 0-7.68-5.12-7.68-7.68v-28.16c0-7.68 2.56-12.8 7.68-12.8z"></path>
</svg>
